<svg width="150" height="29" viewBox="0 0 150 29" fill="none" xmlns="http://www.w3.org/2000/svg">
<path fill-rule="evenodd" clip-rule="evenodd" d="M55.4067 0.344305C55.9067 0.29269 56.4265 0.266479 56.9664 0.266479C71.0358 0.266479 70.5983 21.6584 57.0261 21.6584C56.5035 21.6584 55.9978 21.6325 55.5103 21.5817C67.8031 20.2623 67.2192 1.67863 55.4067 0.344305ZM50.8174 0.284625C51.0674 0.272528 51.3218 0.266479 51.5811 0.266479C65.8606 0.266479 65.2372 21.6567 51.642 21.6584C53.2679 21.1966 54.6578 20.3708 55.8095 19.1804C57.6886 17.2332 58.6306 14.5404 58.6306 11.0931C58.6306 7.62077 57.6833 4.90817 55.7893 2.96133C54.4477 1.57862 52.7908 0.687462 50.8174 0.284625Z" fill="#9D2D26"/>
<path fill-rule="evenodd" clip-rule="evenodd" d="M12.2049 23.625L9.94267 28.0014H7.50549L8.71441 23.625H12.2049Z" fill="#518B33"/>
<path fill-rule="evenodd" clip-rule="evenodd" d="M10.708 13.9033V10.2943H20.0249V18.8236C19.1176 19.7011 17.8063 20.4737 16.0869 21.1415C14.3666 21.8048 12.6271 22.1387 10.8673 22.1387C8.62933 22.1387 6.67523 21.6701 5.01026 20.7326C3.34487 19.7906 2.09362 18.4498 1.2565 16.7002C0.418966 14.9501 0 13.0509 0 10.9972C0 8.76886 0.468565 6.78491 1.40086 5.05018C2.33798 3.32028 3.70376 1.98918 5.50866 1.06697C6.87927 0.354448 8.58941 0 10.633 0C13.29 0 15.3687 0.558487 16.8591 1.67022C18.3551 2.78679 19.3168 4.32717 19.7454 6.29619L15.4538 7.09904C15.1497 6.04699 14.5812 5.2147 13.7485 4.60621C12.9162 3.99812 11.8794 3.69408 10.633 3.69408C8.74385 3.69408 7.2434 4.29249 6.12683 5.4889C5.01026 6.69015 4.45661 8.46481 4.45661 10.8226C4.45661 13.3601 5.01993 15.2691 6.15142 16.5405C7.27808 17.8119 8.75877 18.4446 10.5883 18.4446C11.4956 18.4446 12.4029 18.2652 13.315 17.9111C14.2223 17.5575 15.0046 17.1236 15.6578 16.6199V13.9033H10.708ZM21.5197 21.7746V0.364126H37.392V3.98804H25.8416V8.73377H36.5896V12.3383H25.8416V18.1656H37.8009V21.7746H21.5197ZM38.0993 11.2016C38.0993 9.01806 38.4231 7.18856 39.0764 5.70826C39.5651 4.62153 40.228 3.63924 41.0704 2.77187C41.9128 1.90934 42.835 1.26658 43.837 0.84761C45.1729 0.279445 46.7085 0 48.4533 0C51.6087 0 54.1313 0.977454 56.0253 2.93639C57.9198 4.89049 58.8666 7.61236 58.8666 11.0968C58.8666 14.5566 57.9246 17.2583 56.0451 19.2124C54.166 21.1616 51.6534 22.1387 48.513 22.1387C45.3278 22.1387 42.795 21.1665 40.9159 19.2273C39.0364 17.2833 38.0993 14.6062 38.0993 11.2016ZM42.5511 11.0568C42.5511 13.4799 43.1144 15.3191 44.231 16.5703C45.3524 17.8216 46.773 18.4446 48.4981 18.4446C50.2179 18.4446 51.6337 17.8264 52.7401 16.5804C53.8418 15.3388 54.3954 13.4799 54.3954 10.9972C54.3954 8.54465 53.8567 6.71515 52.7849 5.50382C51.7083 4.29733 50.2776 3.69408 48.4981 3.69408C46.7133 3.69408 45.2778 4.30741 44.1862 5.52842C43.0995 6.75024 42.5511 8.58941 42.5511 11.0568Z" fill="#518B33"/>
<path fill-rule="evenodd" clip-rule="evenodd" d="M70.3899 17.5095V4.02276H73.1347V15.2171H79.9604V17.5095H70.3899ZM83.848 10.6649L81.4834 10.2375C81.7492 9.28423 82.2052 8.58179 82.854 8.1225C83.5061 7.66684 84.4686 7.43538 85.7477 7.43538C86.9126 7.43538 87.7772 7.5749 88.347 7.85031C88.9135 8.12572 89.316 8.47372 89.5466 8.89833C89.7781 9.32254 89.895 10.098 89.895 11.2315L89.8668 14.2739C89.8668 15.1381 89.9075 15.7776 89.9934 16.1893C90.0757 16.5978 90.2337 17.041 90.4616 17.5095H87.8816C87.8151 17.3353 87.7296 17.0789 87.6316 16.7401C87.5905 16.5849 87.5586 16.4837 87.5397 16.4329C87.0933 16.8668 86.6183 17.1897 86.1118 17.4083C85.6053 17.6236 85.0638 17.7309 84.488 17.7309C83.4746 17.7309 82.6738 17.4555 82.0911 16.9079C81.5056 16.3571 81.2141 15.6607 81.2141 14.8183C81.2141 14.2646 81.3471 13.7675 81.6129 13.3303C81.879 12.8936 82.2524 12.5614 82.7306 12.3299C83.2085 12.0988 83.9021 11.8964 84.8045 11.7222C86.0199 11.4944 86.8651 11.2787 87.334 11.0827V10.823C87.334 10.3198 87.2102 9.9649 86.9635 9.74997C86.7167 9.53787 86.2513 9.4298 85.5642 9.4298C85.0989 9.4298 84.738 9.52174 84.4783 9.70562C84.2186 9.88586 84.0097 10.2056 83.848 10.6649ZM87.334 12.7795C87.0014 12.8904 86.4727 13.0235 85.7477 13.1783C85.0259 13.3336 84.5541 13.4856 84.3295 13.6312C83.9908 13.8751 83.8198 14.1788 83.8198 14.5493C83.8198 14.9167 83.9557 15.23 84.2283 15.4961C84.5005 15.7619 84.8456 15.8949 85.2666 15.8949C85.738 15.8949 86.1848 15.7397 86.6118 15.4328C86.9284 15.1981 87.1344 14.9102 87.2324 14.5683C87.3022 14.3465 87.334 13.9227 87.334 13.2989V12.7795ZM96.9803 7.66038V9.73707H95.2012V13.7074C95.2012 14.5114 95.217 14.9796 95.2516 15.1127C95.2867 15.2457 95.3625 15.3534 95.4827 15.4421C95.6033 15.5276 95.7521 15.572 95.923 15.572C96.1666 15.572 96.515 15.4865 96.9743 15.3219L97.1957 17.3418C96.588 17.6015 95.9041 17.7309 95.1347 17.7309C94.6661 17.7309 94.2419 17.6519 93.8653 17.4966C93.4883 17.3385 93.2129 17.1325 93.0358 16.8825C92.8584 16.6325 92.7378 16.2937 92.6685 15.8663C92.6145 15.5655 92.5862 14.9514 92.5862 14.03V9.73707H91.3894V7.66038H92.5862V5.70064L95.2012 4.18083V7.66038H96.9803ZM101.498 17.5095L97.5279 7.66038H100.264L102.118 12.6876L102.657 14.3659C102.799 13.9384 102.891 13.6566 102.926 13.5203C103.014 13.2416 103.106 12.9634 103.204 12.6876L105.079 7.66038H107.76L103.844 17.5095H101.498ZM109.356 6.32405H111.962V3.91187H109.356V6.32405ZM109.356 17.5095H111.962V7.66038H109.356V17.5095ZM114.577 6.32405H117.182V3.91187H114.577V6.32405ZM117.182 7.66038V17.2022C117.182 18.4591 117.1 19.3455 116.938 19.862C116.773 20.3778 116.457 20.7798 115.991 21.0709C115.523 21.3625 114.928 21.508 114.206 21.508C113.947 21.508 113.665 21.4826 113.367 21.4383C113.066 21.3907 112.743 21.3209 112.398 21.2294L112.851 19.0039C112.974 19.0261 113.092 19.0483 113.199 19.064C113.307 19.0797 113.408 19.0862 113.5 19.0862C113.766 19.0862 113.985 19.0289 114.156 18.9152C114.326 18.8011 114.437 18.662 114.494 18.5003C114.548 18.3422 114.577 17.8579 114.577 17.0535V7.66038H117.182ZM121.858 10.6649L119.493 10.2375C119.759 9.28423 120.215 8.58179 120.864 8.1225C121.516 7.66684 122.478 7.43538 123.757 7.43538C124.923 7.43538 125.787 7.5749 126.357 7.85031C126.923 8.12572 127.326 8.47372 127.557 8.89833C127.788 9.32254 127.905 10.098 127.905 11.2315L127.877 14.2739C127.877 15.1381 127.918 15.7776 128.003 16.1893C128.085 16.5978 128.244 17.041 128.471 17.5095H125.891C125.825 17.3353 125.739 17.0789 125.641 16.7401C125.6 16.5849 125.568 16.4837 125.549 16.4329C125.103 16.8668 124.628 17.1897 124.122 17.4083C123.615 17.6236 123.074 17.7309 122.498 17.7309C121.484 17.7309 120.684 17.4555 120.101 16.9079C119.515 16.3571 119.224 15.6607 119.224 14.8183C119.224 14.2646 119.357 13.7675 119.623 13.3303C119.889 12.8936 120.263 12.5614 120.74 12.3299C121.218 12.0988 121.912 11.8964 122.814 11.7222C124.03 11.4944 124.875 11.2787 125.344 11.0827V10.823C125.344 10.3198 125.22 9.9649 124.973 9.74997C124.726 9.53787 124.261 9.4298 123.574 9.4298C123.109 9.4298 122.748 9.52174 122.488 9.70562C122.228 9.88586 122.02 10.2056 121.858 10.6649ZM125.344 12.7795C125.011 12.8904 124.483 13.0235 123.757 13.1783C123.036 13.3336 122.564 13.4856 122.339 13.6312C122.001 13.8751 121.83 14.1788 121.83 14.5493C121.83 14.9167 121.966 15.23 122.238 15.4961C122.51 15.7619 122.855 15.8949 123.276 15.8949C123.748 15.8949 124.195 15.7397 124.622 15.4328C124.939 15.1981 125.144 14.9102 125.242 14.5683C125.312 14.3465 125.344 13.9227 125.344 13.2989V12.7795ZM130.475 17.5095H133.081V14.9038H130.475V17.5095ZM135.753 17.5095H138.359V3.91187H135.753V17.5095ZM143.738 17.5095L139.768 7.66038H142.503L144.358 12.6876L144.897 14.3659C145.039 13.9384 145.13 13.6566 145.165 13.5203C145.254 13.2416 145.346 12.9634 145.444 12.6876L147.318 7.66038H150L146.084 17.5095H143.738Z" fill="#518B33"/>
</svg>
